<svg width="1000" height="1000" viewBox="0 0 1000 1000" fill="none" xmlns="http://www.w3.org/2000/svg">
<path d="M408 696.5V601L472.273 633L549.273 626L625 592L620 703L600.5 725.5L557 706.5L507 696.5H477L451.5 703L426.5 717L408 696.5Z" fill="#808080" stroke="black"/>
<path d="M428.5 667C422.333 646 409.6 603.4 408 601L424.5 610L438 617.5L455.5 626L471.5 631.5H503.5L529.5 626L560.5 617.5L579 610L598 601L622 592L598 672.5V601L586 642L579 610L575 642L560.5 617.5L553 652L529.5 626L521 652L503.5 631.5L488.5 652L471.5 631.5L466 645.5L455.5 626L444.5 631.5L438 617.5L432 626L424.5 610L428.5 667Z" fill="white"/>
<path d="M424.5 610L428.5 667C422.333 646 409.6 603.4 408 601L424.5 610ZM424.5 610L432 626L438 617.5M424.5 610L438 617.5M438 617.5L444.5 631.5L455.5 626M438 617.5L455.5 626M455.5 626L466 645.5L471.5 631.5M455.5 626L471.5 631.5M471.5 631.5L488.5 652L503.5 631.5M471.5 631.5H503.5M503.5 631.5L521 652L529.5 626M503.5 631.5L529.5 626M529.5 626L553 652L560.5 617.5M529.5 626L560.5 617.5M560.5 617.5L575 642L579 610M560.5 617.5L579 610M579 610L586 642L598 601M579 610L598 601M598 601V672.5L622 592L598 601Z" stroke="#616161"/>
<path d="M431 659.5C424.833 680.5 410.6 692.6 409 695L427 716.5L440.5 709L458 700.5L474 695H506L532 700.5L563 709L581.5 716.5L600.5 725.5L620 700.5L600.5 654V725.5L588.5 684.5L581.5 716.5L577.5 684.5L563 709L555.5 674.5L532 700.5L523.5 674.5L506 695L491 674.5L474 695L468.5 681L458 700.5L447 695L440.5 709L434.5 700.5L427 716.5L431 659.5Z" fill="white"/>
<path d="M427 716.5L431 659.5C424.833 680.5 410.6 692.6 409 695L427 716.5ZM427 716.5L434.5 700.5L440.5 709M427 716.5L440.5 709M440.5 709L447 695L458 700.5M440.5 709L458 700.5M458 700.5L468.5 681L474 695M458 700.5L474 695M474 695L491 674.5L506 695M474 695H506M506 695L523.5 674.5L532 700.5M506 695L532 700.5M532 700.5L555.5 674.5L563 709M532 700.5L563 709M563 709L577.5 684.5L581.5 716.5M563 709L581.5 716.5M581.5 716.5L588.5 684.5L600.5 725.5M581.5 716.5L600.5 725.5M600.5 725.5V654L620 700.5L600.5 725.5Z" stroke="#616161"/>
</svg>
