<svg width="1000" height="1000" viewBox="0 0 1000 1000" fill="none" xmlns="http://www.w3.org/2000/svg">
<path d="M514 289L420 374L353 405L285 446L228 489L240 405L278 319L345 264L459 217L531 211L616 217L720 264L790 368L817 446L769 589L762 513L707 423L666 368L585 319L514 289Z" fill="#FFF59F"/>
<path d="M514 289L420 374L353 405L285 446L228 489L240 405L278 319L345 264L459 217L531 211L616 217M514 289L616 217M514 289L585 319L666 368L707 423L762 513L769 589L817 446L790 368L720 264L616 217" stroke="black"/>
</svg>
