<svg width="1000" height="1000" viewBox="0 0 1000 1000" fill="none" xmlns="http://www.w3.org/2000/svg">
<path d="M560.5 320L532 344.5H522.5L499 334.5L466.5 312L426 290L395 253.5L409.5 171.5L452.5 80L512.5 37L560.5 80L610 171.5L622 253.5L610 290L589 300.5L560.5 320Z" fill="#3F3F3F" stroke="black"/>
<path d="M613.5 197L591 90L631.5 137L657.5 211.5V239.5L768.5 336.5L806.5 472V699L773.5 477.5L754 405.5L712.5 336.5L640.252 277.628L540 336.5L613.5 197Z" fill="#090909"/>
<path d="M657.5 239.5V211.5L631.5 137L591 90L613.5 197L540 336.5L640.252 277.628M657.5 239.5V267.5L640.252 277.628M657.5 239.5L768.5 336.5L806.5 472V699L773.5 477.5L754 405.5L712.5 336.5L640.252 277.628" stroke="black"/>
<path d="M426 197L448.5 90L408 137L382 211.5V239.5L271 336.5L233 472V699L266 477.5L285.5 405.5L327 336.5L399.248 277.628L499.5 336.5L426 197Z" fill="#5E5E5E"/>
<path d="M382 239.5V211.5L408 137L448.5 90L426 197L499.5 336.5L399.248 277.628M382 239.5V267.5L399.248 277.628M382 239.5L271 336.5L233 472V699L266 477.5L285.5 405.5L327 336.5L399.248 277.628" stroke="black"/>
</svg>
