<svg width="1000" height="1000" viewBox="0 0 1000 1000" fill="none" xmlns="http://www.w3.org/2000/svg">
<path d="M667.5 188.5L517 167.5L778 480L743.5 248.5L667.5 188.5Z" fill="#4D4B4B" stroke="black"/>
<path d="M364 189.5L517.5 167.5L253.5 481L291.5 241L364 189.5Z" fill="#4D4B4B" stroke="black"/>
<path d="M485.421 301.689L519.268 242.604L545.032 261.631C561.366 274.984 594.741 301.689 597.57 301.689C601.106 301.689 620.808 353.264 623.334 353.264C625.355 353.264 633.943 387.313 637.984 404.338L700.626 446.9L744.071 463.424L786 491.464L777.412 455.913L720.327 340.245L654.15 231.087L580.899 199.541L519.268 171L485.421 185.02L418.233 242.604L315.683 353.264L249 481.45V516L256.072 508.99L280.826 487.459L308.611 446.9L353.571 419.861L377.819 376.298L411.161 345.253L449.554 328.729L485.421 301.689Z" fill="#EB3434" stroke="black"/>
<path d="M739.064 87C777.423 158.739 725.03 330.341 719.417 323.819L689.946 291.211L658.603 263.901L629.132 246.782L602 236.999L636.149 217.842L676.848 186.048L712.868 142.434L739.064 87Z" fill="#8F2CF2" stroke="black"/>
<path d="M738.005 103C770.141 163.084 722.07 313.317 717.367 307.855L692.677 280.544L666.42 257.671L641.731 243.332L619 235.139L647.609 219.094L681.704 192.466L711.881 155.937L738.005 103Z" fill="#D0AFF1" stroke="black"/>
<path d="M293.936 87C255.577 158.739 307.97 330.341 313.583 323.819L343.054 291.211L374.397 263.901L403.868 246.782L431 236.999L396.851 217.842L356.152 186.048L320.132 142.434L293.936 87Z" fill="#8F2CF2" stroke="black"/>
<path d="M294.995 103C262.859 163.084 310.93 313.317 315.633 307.855L340.323 280.544L366.58 257.671L391.269 243.332L414 235.139L385.391 219.094L351.296 192.466L321.119 155.937L294.995 103Z" fill="#D0AFF1" stroke="black"/>
<path d="M517 170L642.33 211.434L664.237 253.867L699.39 281.823L735.562 302.79L767.659 381.166L782.943 433.084L786 486L652.009 310.777L581.703 245.88L544.002 211.434L527.189 192.964L517 170Z" fill="#C4C4C4" stroke="black"/>
<path d="M517 170L392.136 211.434L370.311 253.867L335.288 281.823L299.25 302.79L267.273 381.166L252.045 433.084L249 486L382.492 310.777L452.538 245.88L490.098 211.434L506.848 192.964L517 170Z" fill="#C4C4C4" stroke="black"/>
</svg>
