<svg width="1000" height="1000" viewBox="0 0 1000 1000" fill="none" xmlns="http://www.w3.org/2000/svg">
<path d="M323 292.5L356.5 265.5L391.5 243.5L430.5 226.5L469.5 216.5L511 212L554 216.5L597 226.5L638 244.5L676.5 269L710.5 301.5L735.5 335L754.5 370.5L770 414L698 319L634 265.5L566 247L528.5 278L511 357L484 278L451.5 247L394 273L329 319L258 413L272.5 365.5L295 327.5L323 292.5Z" fill="black" stroke="black"/>
<ellipse cx="514" cy="220" rx="46.5" ry="8" fill="#C4C4C4" stroke="#FFE350" stroke-width="12"/>
<ellipse cx="515.5" cy="131.5" rx="91" ry="94" fill="black"/>
<path d="M544 11L459.5 25.5L424 62L408.5 115.5L443.5 190L565 209.5L629 145.5L695.5 131L753 145.5L802.5 190L828.5 277L879.5 538L888.5 145.5L843 90.5L772.5 53L668 11H544Z" fill="black" stroke="black"/>
</svg>
