<svg width="1000" height="1000" viewBox="0 0 1000 1000" fill="none" xmlns="http://www.w3.org/2000/svg">
<path d="M270.105 283.426L206.02 148.497L185.945 253.455L199.724 363.905L256.967 459.118L266.439 408.873L288.187 366.49L309.744 330.605L340.608 301.494L270.105 283.426Z" fill="#6B6B6B" stroke="black"/>
<path d="M258.911 316.032L219.882 233.938L207.659 297.796L216.052 364.995L250.913 422.925L256.68 392.356L269.923 366.57L283.05 344.737L301.845 327.026L258.911 316.032Z" fill="#ACACAC" stroke="black"/>
<path d="M812.86 422C812.86 433.173 812.194 444.238 809.265 452.337C807.836 456.289 806.041 459.024 803.989 460.753C802.073 462.367 799.474 463.5 795.5 463.5C788.666 463.5 783.832 459.374 780.327 450.604C776.768 441.702 775.5 429.816 775.5 419C775.5 407.731 776.056 397.245 778.831 389.702C780.17 386.062 781.855 383.609 783.795 382.061C785.63 380.596 788.239 379.5 792.36 379.5C799.512 379.5 804.372 383.529 807.866 391.594C811.476 399.926 812.86 411.237 812.86 422Z" stroke="#FFE350" stroke-width="15"/>
<path d="M749.657 274.921L812.913 139.601L833.632 244.434L820.53 354.966L763.873 450.529L754.093 400.343L732.086 358.094L710.308 322.342L679.267 293.421L749.657 274.921Z" fill="#6B6B6B" stroke="black"/>
<path d="M761.051 307.458L799.576 225.126L812.19 288.907L804.21 356.157L769.705 414.3L763.75 383.766L750.349 358.062L737.088 336.31L718.185 318.715L761.051 307.458Z" fill="#ACACAC" stroke="black"/>
</svg>
