<svg width="52" height="36" viewBox="0 0 52 36" fill="none"
    xmlns="http://www.w3.org/2000/svg">
    <g filter="url(#filter0_i_44_2)">
        <rect y="14.8674" width="5.17127" height="12.3536" rx="2.58563" fill="#F7D62A"/>
    </g>
    <rect x="0.5" y="15.3674" width="4.17127" height="11.3536" rx="2.08563" stroke="#BAA11D"/>
    <rect x="47.3287" y="15.3674" width="4.17127" height="11.3536" rx="2.08563" fill="#F7D62A" stroke="#BAA11D"/>
    <g filter="url(#filter1_i_44_2)">
        <rect x="19.8232" y="0.502747" width="12.6409" height="7.46961" rx="3.73481" fill="#F7D62A"/>
    </g>
    <rect x="20.3232" y="1.00275" width="11.6409" height="6.46961" rx="3.23481" stroke="#BAA11D"/>
    <g filter="url(#filter2_i_44_2)">
        <path d="M2.58569 25.3361C2.58569 13.8424 11.9032 4.52486 23.3969 4.52486H28.6032C40.0969 4.52486 49.4144 13.8424 49.4144 25.3361C49.4144 30.9784 44.8404 35.5525 39.198 35.5525H12.8021C7.15973 35.5525 2.58569 30.9784 2.58569 25.3361Z" fill="#F7D62A"/>
    </g>
    <path d="M3.08569 25.3361C3.08569 14.1185 12.1793 5.02486 23.3969 5.02486H28.6032C39.8208 5.02486 48.9144 14.1185 48.9144 25.3361C48.9144 30.7023 44.5642 35.0525 39.198 35.0525H12.8021C7.43587 35.0525 3.08569 30.7023 3.08569 25.3361Z" stroke="#BAA11D"/>
    <circle cx="16.0884" cy="15.442" r="5.82044" fill="white" stroke="#BAA11D"/>
    <circle cx="16.0884" cy="15.442" r="3.16022" fill="black"/>
    <circle cx="14.9392" cy="14.8674" r="1.14917" fill="white"/>
    <circle cx="35.6243" cy="15.442" r="5.82044" fill="white" stroke="#BAA11D"/>
    <circle cx="35.6243" cy="15.442" r="3.16022" fill="black"/>
    <circle cx="34.4752" cy="14.8674" r="1.14917" fill="white"/>
    <path d="M20.3978 25.4972C22.6962 29.9503 29.1603 29.9503 31.6022 25.4972" stroke="#BAA11D" stroke-linecap="round"/>
    <defs>
        <filter id="filter0_i_44_2" x="0" y="14.8674" width="5.17126" height="12.3536" filterUnits="userSpaceOnUse" color-interpolation-filters="sRGB">
            <feFlood flood-opacity="0" result="BackgroundImageFix"/>
            <feBlend mode="normal" in="SourceGraphic" in2="BackgroundImageFix" result="shape"/>
            <feColorMatrix in="SourceAlpha" type="matrix" values="0 0 0 0 0 0 0 0 0 0 0 0 0 0 0 0 0 0 127 0" result="hardAlpha"/>
            <feOffset dx="34.426" dy="12.9098"/>
            <feComposite in2="hardAlpha" operator="arithmetic" k2="-1" k3="1"/>
            <feColorMatrix type="matrix" values="0 0 0 0 1 0 0 0 0 1 0 0 0 0 1 0 0 0 0.25 0"/>
            <feBlend mode="normal" in2="shape" result="effect1_innerShadow_44_2"/>
        </filter>
        <filter id="filter1_i_44_2" x="19.8232" y="0.502747" width="12.6409" height="7.4696" filterUnits="userSpaceOnUse" color-interpolation-filters="sRGB">
            <feFlood flood-opacity="0" result="BackgroundImageFix"/>
            <feBlend mode="normal" in="SourceGraphic" in2="BackgroundImageFix" result="shape"/>
            <feColorMatrix in="SourceAlpha" type="matrix" values="0 0 0 0 0 0 0 0 0 0 0 0 0 0 0 0 0 0 127 0" result="hardAlpha"/>
            <feOffset dx="34.426" dy="12.9098"/>
            <feComposite in2="hardAlpha" operator="arithmetic" k2="-1" k3="1"/>
            <feColorMatrix type="matrix" values="0 0 0 0 1 0 0 0 0 1 0 0 0 0 1 0 0 0 0.25 0"/>
            <feBlend mode="normal" in2="shape" result="effect1_innerShadow_44_2"/>
        </filter>
        <filter id="filter2_i_44_2" x="2.58569" y="4.52486" width="46.8287" height="31.0276" filterUnits="userSpaceOnUse" color-interpolation-filters="sRGB">
            <feFlood flood-opacity="0" result="BackgroundImageFix"/>
            <feBlend mode="normal" in="SourceGraphic" in2="BackgroundImageFix" result="shape"/>
            <feColorMatrix in="SourceAlpha" type="matrix" values="0 0 0 0 0 0 0 0 0 0 0 0 0 0 0 0 0 0 127 0" result="hardAlpha"/>
            <feOffset dx="34.426" dy="12.9098"/>
            <feComposite in2="hardAlpha" operator="arithmetic" k2="-1" k3="1"/>
            <feColorMatrix type="matrix" values="0 0 0 0 1 0 0 0 0 1 0 0 0 0 1 0 0 0 0.25 0"/>
            <feBlend mode="normal" in2="shape" result="effect1_innerShadow_44_2"/>
        </filter>
    </defs>
</svg>
