<svg width="27" height="27" viewBox="0 0 27 27" fill="none"
    xmlns="http://www.w3.org/2000/svg">
    <path d="M13.688 26.324C11.84 26.324 10.124 26 8.54 25.352C6.956 24.68 5.576 23.756 4.4 22.58C3.224 21.38 2.3 20 1.628 18.44C0.98 16.856 0.656 15.14 0.656 13.292C0.656 11.444 0.98 9.74 1.628 8.18C2.3 6.596 3.224 5.216 4.4 4.04C5.576 2.864 6.956 1.952 8.54 1.304C10.124 0.631998 11.84 0.295998 13.688 0.295998C15.536 0.295998 17.24 0.631998 18.8 1.304C20.384 1.952 21.764 2.864 22.94 4.04C24.116 5.216 25.028 6.596 25.676 8.18C26.348 9.74 26.684 11.444 26.684 13.292C26.684 15.14 26.348 16.856 25.676 18.44C25.028 20 24.116 21.38 22.94 22.58C21.764 23.756 20.384 24.68 18.8 25.352C17.24 26 15.536 26.324 13.688 26.324ZM13.688 24.74C15.296 24.74 16.784 24.452 18.152 23.876C19.544 23.3 20.744 22.496 21.752 21.464C22.784 20.408 23.588 19.196 24.164 17.828C24.74 16.436 25.028 14.924 25.028 13.292C25.028 11.66 24.74 10.16 24.164 8.792C23.588 7.4 22.784 6.188 21.752 5.156C20.744 4.124 19.544 3.32 18.152 2.744C16.784 2.168 15.296 1.88 13.688 1.88C12.08 1.88 10.58 2.168 9.188 2.744C7.796 3.32 6.584 4.124 5.552 5.156C4.544 6.188 3.752 7.4 3.176 8.792C2.6 10.16 2.312 11.66 2.312 13.292C2.312 14.924 2.6 16.436 3.176 17.828C3.752 19.196 4.544 20.408 5.552 21.464C6.584 22.496 7.796 23.3 9.188 23.876C10.58 24.452 12.08 24.74 13.688 24.74ZM14.156 21.068C11.852 21.068 10.028 20.36 8.684 18.944C7.34 17.504 6.668 15.596 6.668 13.22C6.668 10.844 7.34 8.972 8.684 7.604C10.028 6.236 11.852 5.552 14.156 5.552C15.116 5.552 16.052 5.72 16.964 6.056C17.9 6.392 18.68 6.86 19.304 7.46L18.44 9.332C17.792 8.78 17.108 8.372 16.388 8.108C15.668 7.844 14.96 7.712 14.264 7.712C12.704 7.712 11.48 8.192 10.592 9.152C9.704 10.112 9.26 11.468 9.26 13.22C9.26 14.972 9.704 16.364 10.592 17.396C11.48 18.404 12.704 18.908 14.264 18.908C14.96 18.908 15.668 18.776 16.388 18.512C17.108 18.248 17.792 17.828 18.44 17.252L19.304 19.16C18.68 19.736 17.9 20.204 16.964 20.564C16.028 20.9 15.092 21.068 14.156 21.068Z" fill="white"/>
</svg>
