<svg width="150" height="140" viewBox="0 0 150 140" fill="none" xmlns="http://www.w3.org/2000/svg">
<path fill-rule="evenodd" clip-rule="evenodd" d="M0 70.0176C0 59.2469 2.4592 48.4761 7.3776 38.5864C19.1513 14.923 43.1318 0.00471722 69.3546 0.00471722C86.582 -0.201052 103.223 6.33211 115.761 18.2153L95.9601 38.2007C88.7992 31.3073 79.2424 27.552 69.3546 27.7064C51.2611 27.7064 35.8942 40.0266 30.4152 56.617C28.9205 61.0895 28.1949 65.7526 28.2381 70.4103" fill="#613BFF" fill-opacity="0.06"/>
<path fill-rule="evenodd" clip-rule="evenodd" d="M42.1916 70.4055C42.2324 74.8014 42.9581 79.1925 44.3686 83.4138H44.3942C49.8986 99.9779 65.2401 112.299 83.3336 112.299C92.6737 112.299 100.692 109.887 106.907 105.628C114.22 100.724 119.215 93.0332 120.77 84.3395L81.9768 57.3839H148.726C149.541 62.0652 149.924 66.8493 149.924 71.6076C149.924 92.8984 142.385 110.899 129.267 123.09C117.788 133.801 102.014 140 83.3082 140C57.0854 140 33.1048 125.082 21.3311 101.444C16.4127 91.5542 13.9535 80.7835 13.9535 70.0128" fill="#613BFF" fill-opacity="0.06"/>
</svg>
