<svg width="96" height="90" viewBox="0 0 96 90" fill="none" xmlns="http://www.w3.org/2000/svg">
<path fill-rule="evenodd" clip-rule="evenodd" d="M0 45.0113C0 38.0873 1.57389 31.1632 4.72167 24.8055C12.2568 9.59333 27.6044 0.0030325 44.387 0.0030325C55.4125 -0.129247 66.0627 4.07064 74.0871 11.7098L61.4145 24.5576C56.8315 20.1261 50.7152 17.712 44.387 17.8112C32.8071 17.8112 22.9723 25.7314 19.4657 36.3966C18.5092 39.2718 18.0447 42.2696 18.0724 45.2638" fill="#D6CCFF"/>
<path fill-rule="evenodd" clip-rule="evenodd" d="M27.0026 45.2607C27.0287 48.0866 27.4932 50.9094 28.3959 53.6231H28.4123C31.9351 64.2715 41.7537 72.1919 53.3335 72.1919C59.3112 72.1919 64.4429 70.6417 68.4202 67.9039C73.101 64.7512 76.2978 59.807 77.2927 54.2183L52.4651 36.8896H95.1844C95.7064 39.899 95.951 42.9745 95.951 46.0334C95.951 59.7204 91.1263 71.2922 82.7312 79.1296C75.3843 86.015 65.2886 90 53.3172 90C36.5346 90 21.1871 80.4098 13.6519 65.214C10.5041 58.8563 8.93024 51.9323 8.93024 45.0082" fill="#D6CCFF"/>
</svg>
