<svg width="23" height="24" viewBox="0 0 23 24" fill="none"
    xmlns="http://www.w3.org/2000/svg">
    <path d="M11.9647 24C11.3187 24.002 10.6988 23.7341 10.2433 23.2561L0.712943 13.31C0.210013 12.7867 -0.0478673 12.0597 0.00735114 11.3208L0.61562 2.98572C0.702357 1.732 1.65965 0.73579 2.86135 0.648682L10.8491 0.0139638C10.9112 0 10.9744 0 11.0365 0C11.6811 0.00172674 12.2989 0.269094 12.7554 0.74389L22.287 10.6887C22.7435 11.1648 23 11.8107 23 12.4843C23 13.1578 22.7435 13.8037 22.287 14.2799L13.6849 23.2561C13.2297 23.7338 12.6103 24.0017 11.9647 24ZM11.0353 2.53887L3.0414 3.17359L2.43313 11.5151L11.9647 21.4611L20.5656 12.4862L11.0353 2.53887ZM6.80293 9.63757C5.64216 9.63782 4.64286 8.78242 4.41618 7.59449C4.1895 6.40657 4.79857 5.21698 5.8709 4.75325C6.94323 4.28953 8.18016 4.68081 8.82521 5.68782C9.47026 6.69482 9.34378 8.03707 8.52311 8.89368C8.06792 9.37139 7.44852 9.63925 6.80293 9.63757Z" fill="white"/>
</svg>
