<svg width="245" height="262" viewBox="0 0 245 262" fill="none"
  xmlns="http://www.w3.org/2000/svg">
  <path d="M125.371 82.3109V0H37.64V82.3109V164.622H125.371H213.102V82.3109H125.371Z" fill="#613BFF"/>
  <path d="M179.045 199.937H0V31.953H91.3141V114.264H179.045V199.937ZM3.58305 196.575H175.462V117.626H87.7311V35.3147H3.58305V196.575Z" fill="white"/>
  <path d="M143.734 0.891602H138.395V72.3274H143.734V0.891602Z" fill="#FFC200"/>
  <path d="M157.332 0.874023H151.993V72.3099H157.332V0.874023Z" fill="#FFC200"/>
  <path d="M170.912 0.890991H165.573V72.3268H170.912V0.890991Z" fill="#FFC200"/>
  <path d="M184.491 0.890991H179.153V72.3268H184.491V0.890991Z" fill="#FFC200"/>
  <path d="M198.071 0.874023H192.732V72.3099H198.071V0.874023Z" fill="#FFC200"/>
  <path d="M211.49 0.890991H206.312V72.3268H211.49V0.890991Z" fill="#FFC200"/>
  <path d="M188 176V229H245V176H188ZM237.064 221.621H195.936V183.379H237.064V221.621Z" fill="#613BFF"/>
  <path d="M32.0362 231L32 262L62 246.516L32.0362 231Z" fill="#FFC200"/>
</svg>
