<svg width="1000" height="1000" viewBox="0 0 1000 1000" fill="none" xmlns="http://www.w3.org/2000/svg">
<path d="M267.895 71C226.895 159 282.895 369.5 288.895 361.5L320.395 321.5L353.896 288L385.395 267L414.396 255L377.895 231.5L334.395 192.5L295.895 139L267.895 71Z" fill="#F95050" stroke="black"/>
<path d="M269.396 91C235.101 164.858 286.401 349.528 291.42 342.814L317.768 309.242L345.79 281.126L372.138 263.501L396.395 253.429L365.864 233.706L329.479 200.974L297.275 156.072L269.396 91Z" fill="#F5C0C0" stroke="black"/>
<path d="M765.896 71C806.896 159 750.896 369.5 744.896 361.5L713.396 321.5L679.895 288L648.396 267L619.395 255L655.896 231.5L699.396 192.5L737.896 139L765.896 71Z" fill="#F95050" stroke="black"/>
<path d="M764.396 91C798.691 164.858 747.39 349.528 742.372 342.814L716.023 309.242L688.002 281.126L661.654 263.501L637.396 253.429L667.927 233.706L704.313 200.974L736.516 156.072L764.396 91Z" fill="#F5C0C0" stroke="black"/>
<path d="M274.396 388L291.396 358.25L314.458 328.5L336.739 301L364.896 279.375L400.396 259.5L423.021 248.062L443.208 240.562L480.396 235.062L516.646 232L560.927 237.5L600.896 247.312L635.489 262.5L666.396 281.375L699.396 308.031L722.396 334.688L758.896 388" stroke="#F95050" stroke-width="8"/>
</svg>
