<svg width="1000" height="1000" viewBox="0 0 1000 1000" fill="none" xmlns="http://www.w3.org/2000/svg">
<path d="M286.029 403.398L311.787 353.184L344.559 314.164L389.769 284.592L446.965 265.49L487.288 260.664L520.754 259.151L571.064 264.885L620.215 278.179L666.002 305.64L705.202 342.407" stroke="#D8D8D8" stroke-width="48"/>
<path d="M425.485 252.11C426.106 253.087 426.698 255.113 425.581 259.107C424.465 263.096 421.855 268.143 417.534 273.927C408.928 285.447 394.583 298.501 376.432 310.031C358.281 321.56 340.368 328.997 326.282 331.891C319.21 333.344 313.532 333.561 309.447 332.876C305.358 332.19 303.775 330.793 303.154 329.816C302.534 328.839 301.942 326.812 303.059 322.819C304.175 318.83 306.785 313.783 311.106 307.999C319.712 296.479 334.057 283.425 352.208 271.895C370.359 260.366 388.272 252.929 402.358 250.035C409.43 248.582 415.107 248.364 419.193 249.05C423.282 249.736 424.865 251.133 425.485 252.11Z" fill="#C4C4C4" stroke="#6D6D6D" stroke-width="16"/>
<path d="M419.378 251.191C425.746 261.217 411.22 281.931 377.117 299.467C349.601 323.453 311.722 333.646 305.354 323.621C298.986 313.595 313.46 294.697 345.073 271.651C367.722 255.14 413.01 241.166 419.378 251.191Z" fill="#FDFDFD" fill-opacity="0.73"/>
<path d="M663.137 295.202C662.74 296.29 661.492 297.993 657.645 299.538C653.801 301.082 648.208 302.084 640.989 302.179C626.611 302.367 607.521 298.936 587.323 291.558C567.125 284.18 550.318 274.498 539.447 265.087C533.988 260.362 530.358 255.99 528.414 252.332C526.469 248.671 526.613 246.565 527.01 245.477C527.407 244.39 528.655 242.687 532.502 241.142C536.346 239.598 541.939 238.595 549.158 238.501C563.536 238.313 582.626 241.744 602.824 249.122C623.022 256.5 639.829 266.181 650.701 275.593C656.159 280.318 659.789 284.689 661.733 288.347C663.678 292.009 663.534 294.115 663.137 295.202Z" fill="#C4C4C4" stroke="#6D6D6D" stroke-width="16"/>
<path d="M660.147 289.798C656.072 300.954 630.795 302.043 596.12 285.669C560.338 278.447 529.189 254.606 533.264 243.45C537.339 232.294 561.143 232.268 598.674 243.313C625.561 251.226 664.222 278.642 660.147 289.798Z" fill="#FDFDFD" fill-opacity="0.73"/>
</svg>
