<svg width="1000" height="1000" viewBox="0 0 1000 1000" fill="none" xmlns="http://www.w3.org/2000/svg">
<path d="M517 78L549.909 228H484.091L517 78Z" fill="#A48EE3"/>
<path d="M517 396L484.091 246L549.909 246L517 396Z" fill="#A48EE3"/>
<path d="M423 139L444.651 237.25H401.349L423 139Z" fill="#A48EE3"/>
<path d="M423 335L401.349 236.75L444.65 236.75L423 335Z" fill="#A48EE3"/>
<path d="M611 139L632.651 237.25H589.349L611 139Z" fill="#A48EE3"/>
<path d="M611 335L589.349 236.75L632.65 236.75L611 335Z" fill="#A48EE3"/>
<path d="M592 237.556L753 208L736 221.722L592 246V237.556Z" fill="#A48EE3"/>
<path d="M442 237.556L281 208L298 221.722L442 246V237.556Z" fill="#A48EE3"/>
</svg>
