
    <svg width="1000" height="1000" viewBox="0 0 1000 1000" fill="none" xmlns="http://www.w3.org/2000/svg">
        
<circle cx="516.5" cy="499.5" r="264.5" fill="#FFF3E9"/>

        
<path d="M323 292.5L356.5 265.5L391.5 243.5L430.5 226.5L469.5 216.5L511 212L554 216.5L597 226.5L638 244.5L676.5 269L710.5 301.5L735.5 335L754.5 370.5L770 414L698 319L634 265.5L566 247L528.5 278L511 357L484 278L451.5 247L394 273L329 319L258 413L272.5 365.5L295 327.5L323 292.5Z" fill="black" stroke="black"/>
<ellipse cx="514" cy="220" rx="46.5" ry="8" fill="#C4C4C4" stroke="#FFE350" stroke-width="12"/>
<ellipse cx="515.5" cy="131.5" rx="91" ry="94" fill="black"/>
<path d="M544 11L459.5 25.5L424 62L408.5 115.5L443.5 190L565 209.5L629 145.5L695.5 131L753 145.5L802.5 190L828.5 277L879.5 538L888.5 145.5L843 90.5L772.5 53L668 11H544Z" fill="black" stroke="black"/>

        
<path d="M504 464.043C504 478.875 484.415 498.342 452.417 491.668C437.966 488.655 425.327 477.938 416.188 465.341C406.99 452.664 402 439.008 402 431.089C402 429.344 402.367 428.544 402.62 428.19C402.838 427.886 403.236 427.536 404.211 427.284C406.502 426.692 410.332 427.029 415.998 428.183C418.525 428.698 421.334 429.361 424.345 430.071C433.955 432.337 445.625 435.089 456.8 435.089C470.287 435.089 482.31 438.615 490.839 444.104C499.41 449.621 504 456.763 504 464.043Z" fill="#71D1EF" stroke="#707070" stroke-width="8"/>
<path d="M544 464.043C544 478.875 563.585 498.342 595.583 491.668C610.034 488.655 622.673 477.938 631.812 465.341C641.01 452.664 646 439.008 646 431.089C646 429.344 645.633 428.544 645.38 428.19C645.162 427.886 644.764 427.536 643.789 427.284C641.498 426.692 637.668 427.029 632.002 428.183C629.475 428.698 626.666 429.361 623.655 430.071C614.045 432.337 602.375 435.089 591.2 435.089C577.713 435.089 565.69 438.615 557.161 444.104C548.59 449.621 544 456.763 544 464.043Z" fill="#F0CA41" stroke="#707070" stroke-width="8"/>

        
<path d="M521.605 532C522.958 534.252 536.752 564.692 555.393 592.602C558.052 596.582 556.82 602.03 552.629 604.342L517 624" stroke="#494949" stroke-width="8"/>

        
<path d="M622.5 639L680 678.5L632.5 668.5H418.5L367 678.5L432.5 639H622.5Z" fill="#EBEBEB"/>
<path d="M367 678.5L418.5 657.5H632.5L680 678.5M367 678.5L432.5 639H622.5L680 678.5M367 678.5L418.5 668.5H632.5L680 678.5" stroke="#494949"/>

        
<path d="M817.5 294C817.5 314.158 687.767 350 526.5 350C365.233 350 229 314.158 229 294C229 273.842 365.233 277 526.5 277C687.767 277 817.5 273.842 817.5 294Z" fill="black"/>
<rect x="364.5" y="123" width="323" height="190" fill="black"/>
<ellipse cx="526" cy="123.5" rx="161.5" ry="26.5" fill="black"/>

    </svg>
