
    <svg width="1000" height="1000" viewBox="0 0 1000 1000" fill="none" xmlns="http://www.w3.org/2000/svg">
        
<circle cx="516.5" cy="499.5" r="264.5" fill="#FFF3E9"/>

        
<path d="M667.5 188.5L517 167.5L778 480L743.5 248.5L667.5 188.5Z" fill="#4D4B4B" stroke="black"/>
<path d="M364 189.5L517.5 167.5L253.5 481L291.5 241L364 189.5Z" fill="#4D4B4B" stroke="black"/>
<path d="M485.421 301.689L519.268 242.604L545.032 261.631C561.366 274.984 594.741 301.689 597.57 301.689C601.106 301.689 620.808 353.264 623.334 353.264C625.355 353.264 633.943 387.313 637.984 404.338L700.626 446.9L744.071 463.424L786 491.464L777.412 455.913L720.327 340.245L654.15 231.087L580.899 199.541L519.268 171L485.421 185.02L418.233 242.604L315.683 353.264L249 481.45V516L256.072 508.99L280.826 487.459L308.611 446.9L353.571 419.861L377.819 376.298L411.161 345.253L449.554 328.729L485.421 301.689Z" fill="#EB3434" stroke="black"/>
<path d="M739.064 87C777.423 158.739 725.03 330.341 719.417 323.819L689.946 291.211L658.603 263.901L629.132 246.782L602 236.999L636.149 217.842L676.848 186.048L712.868 142.434L739.064 87Z" fill="#8F2CF2" stroke="black"/>
<path d="M738.005 103C770.141 163.084 722.07 313.317 717.367 307.855L692.677 280.544L666.42 257.671L641.731 243.332L619 235.139L647.609 219.094L681.704 192.466L711.881 155.937L738.005 103Z" fill="#D0AFF1" stroke="black"/>
<path d="M293.936 87C255.577 158.739 307.97 330.341 313.583 323.819L343.054 291.211L374.397 263.901L403.868 246.782L431 236.999L396.851 217.842L356.152 186.048L320.132 142.434L293.936 87Z" fill="#8F2CF2" stroke="black"/>
<path d="M294.995 103C262.859 163.084 310.93 313.317 315.633 307.855L340.323 280.544L366.58 257.671L391.269 243.332L414 235.139L385.391 219.094L351.296 192.466L321.119 155.937L294.995 103Z" fill="#D0AFF1" stroke="black"/>
<path d="M517 170L642.33 211.434L664.237 253.867L699.39 281.823L735.562 302.79L767.659 381.166L782.943 433.084L786 486L652.009 310.777L581.703 245.88L544.002 211.434L527.189 192.964L517 170Z" fill="#C4C4C4" stroke="black"/>
<path d="M517 170L392.136 211.434L370.311 253.867L335.288 281.823L299.25 302.79L267.273 381.166L252.045 433.084L249 486L382.492 310.777L452.538 245.88L490.098 211.434L506.848 192.964L517 170Z" fill="#C4C4C4" stroke="black"/>

        
<mask id="path-1-inside-1_205_150" fill="white">
<path d="M494.785 450.57C494.785 470.453 481.243 488.913 440.284 477.57C407.785 468.57 372.785 438.57 364.785 402.57C357.155 368.237 406.871 410.57 440.284 410.57C473.698 410.57 494.785 430.688 494.785 450.57Z"/>
<path d="M552.332 450.57C552.332 470.453 565.873 488.913 606.832 477.57C639.332 468.57 674.331 438.57 682.332 402.57C689.962 368.237 640.245 410.57 606.832 410.57C573.419 410.57 552.332 430.688 552.332 450.57Z"/>
</mask>
<path d="M494.785 450.57C494.785 470.453 481.243 488.913 440.284 477.57C407.785 468.57 372.785 438.57 364.785 402.57C357.155 368.237 406.871 410.57 440.284 410.57C473.698 410.57 494.785 430.688 494.785 450.57Z" fill="#F8E646"/>
<path d="M552.332 450.57C552.332 470.453 565.873 488.913 606.832 477.57C639.332 468.57 674.331 438.57 682.332 402.57C689.962 368.237 640.245 410.57 606.832 410.57C573.419 410.57 552.332 430.688 552.332 450.57Z" fill="#F8E646"/>
<path d="M440.284 477.57L442.419 469.861L440.284 477.57ZM364.785 402.57L372.594 400.835L364.785 402.57ZM606.832 477.57L604.697 469.86L606.832 477.57ZM682.332 402.57L674.522 400.835L682.332 402.57ZM486.785 450.57C486.785 458.84 484.014 465.41 478.45 469.128C472.717 472.958 461.854 475.242 442.419 469.861L438.149 485.28C459.673 491.241 476.061 489.966 487.338 482.432C498.785 474.784 502.785 462.183 502.785 450.57H486.785ZM442.419 469.861C427.557 465.745 411.816 456.709 398.858 444.396C385.898 432.081 376.169 416.921 372.594 400.835L356.975 404.306C361.401 424.22 373.171 442.06 387.836 455.995C402.503 469.932 420.511 480.396 438.149 485.28L442.419 469.861ZM372.594 400.835C372.192 399.027 372.032 397.7 372.004 396.765C371.976 395.814 372.091 395.482 372.073 395.538C372.031 395.667 371.827 396.145 371.291 396.608C370.776 397.054 370.333 397.16 370.301 397.167C370.296 397.168 370.381 397.15 370.581 397.143C370.781 397.136 371.063 397.142 371.441 397.177C372.213 397.249 373.227 397.43 374.518 397.762C377.132 398.433 380.338 399.582 384.16 401.118C391.304 403.99 401.312 408.567 410.533 411.991C419.983 415.502 430.455 418.57 440.284 418.57V402.57C433.407 402.57 425.134 400.347 416.104 396.993C406.843 393.553 398.634 389.692 390.127 386.272C386.122 384.663 382.144 383.202 378.502 382.265C375.045 381.377 370.921 380.691 367.026 381.505C364.94 381.942 362.746 382.844 360.82 384.51C358.874 386.195 357.599 388.318 356.862 390.575C355.494 394.768 355.924 399.578 356.975 404.306L372.594 400.835ZM440.284 418.57C471.085 418.57 486.785 436.718 486.785 450.57H502.785C502.785 424.658 476.31 402.57 440.284 402.57V418.57ZM544.332 450.57C544.332 462.183 548.331 474.784 559.778 482.432C571.055 489.966 587.443 491.241 608.967 485.28L604.697 469.86C585.262 475.242 574.4 472.958 568.667 469.128C563.103 465.41 560.332 458.84 560.332 450.57H544.332ZM608.967 485.28C626.605 480.396 644.613 469.931 659.28 455.995C673.945 442.059 685.716 424.22 690.141 404.306L674.522 400.835C670.947 416.921 661.218 432.081 648.258 444.396C635.3 456.709 619.559 465.745 604.697 469.86L608.967 485.28ZM690.141 404.306C691.192 399.578 691.622 394.768 690.254 390.575C689.517 388.318 688.242 386.195 686.296 384.51C684.371 382.844 682.176 381.941 680.09 381.505C676.195 380.691 672.072 381.377 668.615 382.265C664.972 383.202 660.994 384.663 656.989 386.272C648.482 389.692 640.273 393.553 631.012 396.993C621.982 400.347 613.709 402.57 606.832 402.57V418.57C616.661 418.57 627.133 415.502 636.583 411.991C645.804 408.567 655.812 403.99 662.957 401.118C666.778 399.582 669.984 398.433 672.598 397.762C673.89 397.43 674.904 397.249 675.675 397.177C676.053 397.142 676.336 397.136 676.535 397.143C676.735 397.15 676.82 397.168 676.815 397.166C676.784 397.16 676.34 397.054 675.826 396.608C675.29 396.145 675.085 395.667 675.043 395.538C675.025 395.482 675.14 395.814 675.112 396.765C675.084 397.7 674.924 399.027 674.522 400.835L690.141 404.306ZM606.832 402.57C570.806 402.57 544.332 424.658 544.332 450.57H560.332C560.332 436.718 576.031 418.57 606.832 418.57V402.57Z" fill="#FFDD64" mask="url(#path-1-inside-1_205_150)"/>

        
<path d="M521.605 532C522.958 534.252 536.752 564.692 555.393 592.602C558.052 596.582 556.82 602.03 552.629 604.342L517 624" stroke="#494949" stroke-width="8"/>

        
<path d="M565.5 650L643 670.5L561.14 695H463L391 658.771L463 650L512.5 658.771L565.5 650Z" fill="#D9D7E9"/>
<path d="M391 658.771L470.86 678.261H569.56L643 670.5M391 658.771L463 650L512.5 658.771L565.5 650L643 670.5M391 658.771L463 695H561.14L643 670.5" stroke="#BFB9CC"/>

        
<path d="M249 519.5L324 544L403 548.5L457 519.5L513.5 500L571 519.5L628.5 552.5L703.5 548.5L778 519.5L772 562L760.5 601L727 659.5L682.5 704.5L651 732L609.5 752L567.5 769H517.5L475 762L422 752L373.5 732L345.5 704.5L324 684.5L302.5 659.5L280 627.5L264.5 589L253.5 552.5L249 519.5Z" fill="#6A6A6A"/>

    </svg>
