
    <svg width="1000" height="1000" viewBox="0 0 1000 1000" fill="none" xmlns="http://www.w3.org/2000/svg">
        
<circle cx="516.5" cy="499.5" r="264.5" fill="#FFF3E9"/>

        
<rect x="258" y="468" width="502" height="101" fill="#535353"/>
<path d="M773 541.59C637 411.742 649.556 517.544 509 517.544C368.443 517.544 394 414.147 243 547C226.5 419.5 302.5 232 509 232C723.5 232 783 420 773 541.59Z" fill="#7A7A7A"/>
<rect x="337.5" y="426.5" width="341" height="33" rx="16.5" fill="#ED2E2E" stroke="#F0AFAF" stroke-width="7"/>

        
<path d="M504 464.043C504 478.875 484.415 498.342 452.417 491.668C437.966 488.655 425.327 477.938 416.188 465.341C406.99 452.664 402 439.008 402 431.089C402 429.344 402.367 428.544 402.62 428.19C402.838 427.886 403.236 427.536 404.211 427.284C406.502 426.692 410.332 427.029 415.998 428.183C418.525 428.698 421.334 429.361 424.345 430.071C433.955 432.337 445.625 435.089 456.8 435.089C470.287 435.089 482.31 438.615 490.839 444.104C499.41 449.621 504 456.763 504 464.043Z" fill="#71D1EF" stroke="#707070" stroke-width="8"/>
<path d="M544 464.043C544 478.875 563.585 498.342 595.583 491.668C610.034 488.655 622.673 477.938 631.812 465.341C641.01 452.664 646 439.008 646 431.089C646 429.344 645.633 428.544 645.38 428.19C645.162 427.886 644.764 427.536 643.789 427.284C641.498 426.692 637.668 427.029 632.002 428.183C629.475 428.698 626.666 429.361 623.655 430.071C614.045 432.337 602.375 435.089 591.2 435.089C577.713 435.089 565.69 438.615 557.161 444.104C548.59 449.621 544 456.763 544 464.043Z" fill="#F0CA41" stroke="#707070" stroke-width="8"/>

        
<path d="M429 557.587C429 553.254 432.23 549.601 436.53 549.07L504.854 540.635C508.272 540.213 511.728 540.213 515.146 540.635L583.47 549.07C587.77 549.601 591 553.254 591 557.587C591 562.639 586.658 566.598 581.627 566.132L513.872 559.859C511.296 559.62 508.704 559.62 506.128 559.859L438.373 566.132C433.342 566.598 429 562.639 429 557.587Z" fill="#C4C4C4"/>

        
<path d="M304 535L309 575.25L317 603L334.5 634.75L363 668L397 697L433 716L474.5 729.094L517.25 733L557 729.094L587.562 716L622.719 697L657.875 668L685.281 644L708.188 615.5L724.5 575.25L730.5 535" stroke="black"/>

        
<path d="M517 78L549.909 228H484.091L517 78Z" fill="#A48EE3"/>
<path d="M517 396L484.091 246L549.909 246L517 396Z" fill="#A48EE3"/>
<path d="M423 139L444.651 237.25H401.349L423 139Z" fill="#A48EE3"/>
<path d="M423 335L401.349 236.75L444.65 236.75L423 335Z" fill="#A48EE3"/>
<path d="M611 139L632.651 237.25H589.349L611 139Z" fill="#A48EE3"/>
<path d="M611 335L589.349 236.75L632.65 236.75L611 335Z" fill="#A48EE3"/>
<path d="M592 237.556L753 208L736 221.722L592 246V237.556Z" fill="#A48EE3"/>
<path d="M442 237.556L281 208L298 221.722L442 246V237.556Z" fill="#A48EE3"/>

    </svg>
