
    <svg width="1000" height="1000" viewBox="0 0 1000 1000" fill="none" xmlns="http://www.w3.org/2000/svg">
        
<circle cx="516.5" cy="499.5" r="264.5" fill="#FFF3E9"/>

        
<path d="M270.105 283.426L206.02 148.497L185.945 253.455L199.724 363.905L256.967 459.118L266.439 408.873L288.187 366.49L309.744 330.605L340.608 301.494L270.105 283.426Z" fill="#6B6B6B" stroke="black"/>
<path d="M258.911 316.032L219.882 233.938L207.659 297.796L216.052 364.995L250.913 422.925L256.68 392.356L269.923 366.57L283.05 344.737L301.845 327.026L258.911 316.032Z" fill="#ACACAC" stroke="black"/>
<path d="M812.86 422C812.86 433.173 812.194 444.238 809.265 452.337C807.836 456.289 806.041 459.024 803.989 460.753C802.073 462.367 799.474 463.5 795.5 463.5C788.666 463.5 783.832 459.374 780.327 450.604C776.768 441.702 775.5 429.816 775.5 419C775.5 407.731 776.056 397.245 778.831 389.702C780.17 386.062 781.855 383.609 783.795 382.061C785.63 380.596 788.239 379.5 792.36 379.5C799.512 379.5 804.372 383.529 807.866 391.594C811.476 399.926 812.86 411.237 812.86 422Z" stroke="#FFE350" stroke-width="15"/>
<path d="M749.657 274.921L812.913 139.601L833.632 244.434L820.53 354.966L763.873 450.529L754.093 400.343L732.086 358.094L710.308 322.342L679.267 293.421L749.657 274.921Z" fill="#6B6B6B" stroke="black"/>
<path d="M761.051 307.458L799.576 225.126L812.19 288.907L804.21 356.157L769.705 414.3L763.75 383.766L750.349 358.062L737.088 336.31L718.185 318.715L761.051 307.458Z" fill="#ACACAC" stroke="black"/>

        
<path d="M270.5 406L300 417.5L379.5 428.5L515 431L663 428.5L737.5 423.5L762.5 409.5L772.5 436.5L775.363 462L515 455L258 441.5L262.5 423L270.5 406Z" fill="#871E1E"/>
<circle cx="417.5" cy="454" r="65" fill="#2A9C4A" stroke="#871E1E" stroke-width="18"/>
<circle cx="417" cy="453.5" r="63.5" fill="#DBFEC0" fill-opacity="0.46"/>
<circle cx="619.5" cy="454" r="65" fill="#2A9C4A" stroke="#871E1E" stroke-width="18"/>
<circle cx="619" cy="453.5" r="63.5" fill="#DBFEC0" fill-opacity="0.46"/>

        
<path d="M521.605 532C522.958 534.252 536.752 564.692 555.393 592.602C558.052 596.582 556.82 602.03 552.629 604.342L517 624" stroke="#494949" stroke-width="8"/>

        
<path d="M408 696.5V601L472.273 633L549.273 626L625 592L620 703L600.5 725.5L557 706.5L507 696.5H477L451.5 703L426.5 717L408 696.5Z" fill="#808080" stroke="black"/>
<path d="M428.5 667C422.333 646 409.6 603.4 408 601L424.5 610L438 617.5L455.5 626L471.5 631.5H503.5L529.5 626L560.5 617.5L579 610L598 601L622 592L598 672.5V601L586 642L579 610L575 642L560.5 617.5L553 652L529.5 626L521 652L503.5 631.5L488.5 652L471.5 631.5L466 645.5L455.5 626L444.5 631.5L438 617.5L432 626L424.5 610L428.5 667Z" fill="white"/>
<path d="M424.5 610L428.5 667C422.333 646 409.6 603.4 408 601L424.5 610ZM424.5 610L432 626L438 617.5M424.5 610L438 617.5M438 617.5L444.5 631.5L455.5 626M438 617.5L455.5 626M455.5 626L466 645.5L471.5 631.5M455.5 626L471.5 631.5M471.5 631.5L488.5 652L503.5 631.5M471.5 631.5H503.5M503.5 631.5L521 652L529.5 626M503.5 631.5L529.5 626M529.5 626L553 652L560.5 617.5M529.5 626L560.5 617.5M560.5 617.5L575 642L579 610M560.5 617.5L579 610M579 610L586 642L598 601M579 610L598 601M598 601V672.5L622 592L598 601Z" stroke="#616161"/>
<path d="M431 659.5C424.833 680.5 410.6 692.6 409 695L427 716.5L440.5 709L458 700.5L474 695H506L532 700.5L563 709L581.5 716.5L600.5 725.5L620 700.5L600.5 654V725.5L588.5 684.5L581.5 716.5L577.5 684.5L563 709L555.5 674.5L532 700.5L523.5 674.5L506 695L491 674.5L474 695L468.5 681L458 700.5L447 695L440.5 709L434.5 700.5L427 716.5L431 659.5Z" fill="white"/>
<path d="M427 716.5L431 659.5C424.833 680.5 410.6 692.6 409 695L427 716.5ZM427 716.5L434.5 700.5L440.5 709M427 716.5L440.5 709M440.5 709L447 695L458 700.5M440.5 709L458 700.5M458 700.5L468.5 681L474 695M458 700.5L474 695M474 695L491 674.5L506 695M474 695H506M506 695L523.5 674.5L532 700.5M506 695L532 700.5M532 700.5L555.5 674.5L563 709M532 700.5L563 709M563 709L577.5 684.5L581.5 716.5M563 709L581.5 716.5M581.5 716.5L588.5 684.5L600.5 725.5M581.5 716.5L600.5 725.5M600.5 725.5V654L620 700.5L600.5 725.5Z" stroke="#616161"/>

        
<path d="M528.55 200.839C533.178 209.92 483.077 255.799 410.567 292.761C338.057 329.723 268.574 344.802 263.945 335.722C259.316 326.641 321.295 296.84 393.805 259.878C466.315 222.916 523.921 191.759 528.55 200.839Z" fill="black"/>
<rect x="285.159" y="227.608" width="163" height="96" transform="rotate(-27.0102 285.159 227.608)" fill="black"/>
<ellipse cx="357.997" cy="191.041" rx="81.5" ry="13.5" transform="rotate(-27.0102 357.997 191.041)" fill="black"/>

    </svg>
