
    <svg width="1000" height="1000" viewBox="0 0 1000 1000" fill="none" xmlns="http://www.w3.org/2000/svg">
        
<circle cx="516.5" cy="499.5" r="264.5" fill="#FFF3E9"/>

        
<path d="M323 292.5L356.5 265.5L391.5 243.5L430.5 226.5L469.5 216.5L511 212L554 216.5L597 226.5L638 244.5L676.5 269L710.5 301.5L735.5 335L754.5 370.5L770 414L698 319L634 265.5L566 247L528.5 278L511 357L484 278L451.5 247L394 273L329 319L258 413L272.5 365.5L295 327.5L323 292.5Z" fill="black" stroke="black"/>
<ellipse cx="514" cy="220" rx="46.5" ry="8" fill="#C4C4C4" stroke="#FFE350" stroke-width="12"/>
<ellipse cx="515.5" cy="131.5" rx="91" ry="94" fill="black"/>
<path d="M544 11L459.5 25.5L424 62L408.5 115.5L443.5 190L565 209.5L629 145.5L695.5 131L753 145.5L802.5 190L828.5 277L879.5 538L888.5 145.5L843 90.5L772.5 53L668 11H544Z" fill="black" stroke="black"/>

        
<path d="M498 477.594C498 515 458.5 489.5 421 485C383.5 480.5 370 492.702 370 464.128C370 435.554 383.187 394.672 432.253 398.216C486.866 402.16 498 449.02 498 477.594Z" fill="white"/>
<path d="M497 471C497 495.771 467.535 478.594 441.461 475.614C415.387 472.634 406 480.715 406 461.792C406 442.87 414.883 403.654 449 406C486.973 408.612 497 452.077 497 471Z" fill="#58F5D9"/>
<path d="M479 456.866C479 470.156 472.04 471.039 458 469.44C443.96 467.841 430 462.078 430 451.926C430 441.774 434.783 420.735 453.154 421.994C473.601 423.395 479 446.714 479 456.866Z" fill="#7E7E7E"/>
<path d="M549 477.594C549 515 588.5 489.5 626 485C663.5 480.5 677 492.702 677 464.128C677 435.554 663.813 394.672 614.747 398.216C560.134 402.16 549 449.02 549 477.594Z" fill="white"/>
<path d="M550 471C550 495.771 579.465 478.594 605.539 475.614C631.613 472.634 641 480.715 641 461.792C641 442.87 632.117 403.654 598 406C560.027 408.612 550 452.077 550 471Z" fill="#58F5D9"/>
<path d="M568 456.866C568 470.156 574.96 471.039 589 469.44C603.04 467.841 617 462.078 617 451.926C617 441.774 612.217 420.735 593.846 421.994C573.399 423.395 568 446.714 568 456.866Z" fill="#7E7E7E"/>

        
<path d="M522 605L476.101 560.75L567.899 560.75L522 605Z" fill="#C4C4C4"/>

        
<path d="M408 696.5V601L472.273 633L549.273 626L625 592L620 703L600.5 725.5L557 706.5L507 696.5H477L451.5 703L426.5 717L408 696.5Z" fill="#808080" stroke="black"/>
<path d="M428.5 667C422.333 646 409.6 603.4 408 601L424.5 610L438 617.5L455.5 626L471.5 631.5H503.5L529.5 626L560.5 617.5L579 610L598 601L622 592L598 672.5V601L586 642L579 610L575 642L560.5 617.5L553 652L529.5 626L521 652L503.5 631.5L488.5 652L471.5 631.5L466 645.5L455.5 626L444.5 631.5L438 617.5L432 626L424.5 610L428.5 667Z" fill="white"/>
<path d="M424.5 610L428.5 667C422.333 646 409.6 603.4 408 601L424.5 610ZM424.5 610L432 626L438 617.5M424.5 610L438 617.5M438 617.5L444.5 631.5L455.5 626M438 617.5L455.5 626M455.5 626L466 645.5L471.5 631.5M455.5 626L471.5 631.5M471.5 631.5L488.5 652L503.5 631.5M471.5 631.5H503.5M503.5 631.5L521 652L529.5 626M503.5 631.5L529.5 626M529.5 626L553 652L560.5 617.5M529.5 626L560.5 617.5M560.5 617.5L575 642L579 610M560.5 617.5L579 610M579 610L586 642L598 601M579 610L598 601M598 601V672.5L622 592L598 601Z" stroke="#616161"/>
<path d="M431 659.5C424.833 680.5 410.6 692.6 409 695L427 716.5L440.5 709L458 700.5L474 695H506L532 700.5L563 709L581.5 716.5L600.5 725.5L620 700.5L600.5 654V725.5L588.5 684.5L581.5 716.5L577.5 684.5L563 709L555.5 674.5L532 700.5L523.5 674.5L506 695L491 674.5L474 695L468.5 681L458 700.5L447 695L440.5 709L434.5 700.5L427 716.5L431 659.5Z" fill="white"/>
<path d="M427 716.5L431 659.5C424.833 680.5 410.6 692.6 409 695L427 716.5ZM427 716.5L434.5 700.5L440.5 709M427 716.5L440.5 709M440.5 709L447 695L458 700.5M440.5 709L458 700.5M458 700.5L468.5 681L474 695M458 700.5L474 695M474 695L491 674.5L506 695M474 695H506M506 695L523.5 674.5L532 700.5M506 695L532 700.5M532 700.5L555.5 674.5L563 709M532 700.5L563 709M563 709L577.5 684.5L581.5 716.5M563 709L581.5 716.5M581.5 716.5L588.5 684.5L600.5 725.5M581.5 716.5L600.5 725.5M600.5 725.5V654L620 700.5L600.5 725.5Z" stroke="#616161"/>

        
<path d="M528.55 200.839C533.178 209.92 483.077 255.799 410.567 292.761C338.057 329.723 268.574 344.802 263.945 335.722C259.316 326.641 321.295 296.84 393.805 259.878C466.315 222.916 523.921 191.759 528.55 200.839Z" fill="black"/>
<rect x="285.159" y="227.608" width="163" height="96" transform="rotate(-27.0102 285.159 227.608)" fill="black"/>
<ellipse cx="357.997" cy="191.041" rx="81.5" ry="13.5" transform="rotate(-27.0102 357.997 191.041)" fill="black"/>

    </svg>
