
    <svg width="1000" height="1000" viewBox="0 0 1000 1000" fill="none" xmlns="http://www.w3.org/2000/svg">
        
<circle cx="516.5" cy="499.5" r="264.5" fill="#FFF3E9"/>

        
<path d="M514 289L420 374L353 405L285 446L228 489L240 405L278 319L345 264L459 217L531 211L616 217L720 264L790 368L817 446L769 589L762 513L707 423L666 368L585 319L514 289Z" fill="#FFF59F"/>
<path d="M514 289L420 374L353 405L285 446L228 489L240 405L278 319L345 264L459 217L531 211L616 217M514 289L616 217M514 289L585 319L666 368L707 423L762 513L769 589L817 446L790 368L720 264L616 217" stroke="black"/>

        
<mask id="path-1-inside-1_205_150" fill="white">
<path d="M494.785 450.57C494.785 470.453 481.243 488.913 440.284 477.57C407.785 468.57 372.785 438.57 364.785 402.57C357.155 368.237 406.871 410.57 440.284 410.57C473.698 410.57 494.785 430.688 494.785 450.57Z"/>
<path d="M552.332 450.57C552.332 470.453 565.873 488.913 606.832 477.57C639.332 468.57 674.331 438.57 682.332 402.57C689.962 368.237 640.245 410.57 606.832 410.57C573.419 410.57 552.332 430.688 552.332 450.57Z"/>
</mask>
<path d="M494.785 450.57C494.785 470.453 481.243 488.913 440.284 477.57C407.785 468.57 372.785 438.57 364.785 402.57C357.155 368.237 406.871 410.57 440.284 410.57C473.698 410.57 494.785 430.688 494.785 450.57Z" fill="#F8E646"/>
<path d="M552.332 450.57C552.332 470.453 565.873 488.913 606.832 477.57C639.332 468.57 674.331 438.57 682.332 402.57C689.962 368.237 640.245 410.57 606.832 410.57C573.419 410.57 552.332 430.688 552.332 450.57Z" fill="#F8E646"/>
<path d="M440.284 477.57L442.419 469.861L440.284 477.57ZM364.785 402.57L372.594 400.835L364.785 402.57ZM606.832 477.57L604.697 469.86L606.832 477.57ZM682.332 402.57L674.522 400.835L682.332 402.57ZM486.785 450.57C486.785 458.84 484.014 465.41 478.45 469.128C472.717 472.958 461.854 475.242 442.419 469.861L438.149 485.28C459.673 491.241 476.061 489.966 487.338 482.432C498.785 474.784 502.785 462.183 502.785 450.57H486.785ZM442.419 469.861C427.557 465.745 411.816 456.709 398.858 444.396C385.898 432.081 376.169 416.921 372.594 400.835L356.975 404.306C361.401 424.22 373.171 442.06 387.836 455.995C402.503 469.932 420.511 480.396 438.149 485.28L442.419 469.861ZM372.594 400.835C372.192 399.027 372.032 397.7 372.004 396.765C371.976 395.814 372.091 395.482 372.073 395.538C372.031 395.667 371.827 396.145 371.291 396.608C370.776 397.054 370.333 397.16 370.301 397.167C370.296 397.168 370.381 397.15 370.581 397.143C370.781 397.136 371.063 397.142 371.441 397.177C372.213 397.249 373.227 397.43 374.518 397.762C377.132 398.433 380.338 399.582 384.16 401.118C391.304 403.99 401.312 408.567 410.533 411.991C419.983 415.502 430.455 418.57 440.284 418.57V402.57C433.407 402.57 425.134 400.347 416.104 396.993C406.843 393.553 398.634 389.692 390.127 386.272C386.122 384.663 382.144 383.202 378.502 382.265C375.045 381.377 370.921 380.691 367.026 381.505C364.94 381.942 362.746 382.844 360.82 384.51C358.874 386.195 357.599 388.318 356.862 390.575C355.494 394.768 355.924 399.578 356.975 404.306L372.594 400.835ZM440.284 418.57C471.085 418.57 486.785 436.718 486.785 450.57H502.785C502.785 424.658 476.31 402.57 440.284 402.57V418.57ZM544.332 450.57C544.332 462.183 548.331 474.784 559.778 482.432C571.055 489.966 587.443 491.241 608.967 485.28L604.697 469.86C585.262 475.242 574.4 472.958 568.667 469.128C563.103 465.41 560.332 458.84 560.332 450.57H544.332ZM608.967 485.28C626.605 480.396 644.613 469.931 659.28 455.995C673.945 442.059 685.716 424.22 690.141 404.306L674.522 400.835C670.947 416.921 661.218 432.081 648.258 444.396C635.3 456.709 619.559 465.745 604.697 469.86L608.967 485.28ZM690.141 404.306C691.192 399.578 691.622 394.768 690.254 390.575C689.517 388.318 688.242 386.195 686.296 384.51C684.371 382.844 682.176 381.941 680.09 381.505C676.195 380.691 672.072 381.377 668.615 382.265C664.972 383.202 660.994 384.663 656.989 386.272C648.482 389.692 640.273 393.553 631.012 396.993C621.982 400.347 613.709 402.57 606.832 402.57V418.57C616.661 418.57 627.133 415.502 636.583 411.991C645.804 408.567 655.812 403.99 662.957 401.118C666.778 399.582 669.984 398.433 672.598 397.762C673.89 397.43 674.904 397.249 675.675 397.177C676.053 397.142 676.336 397.136 676.535 397.143C676.735 397.15 676.82 397.168 676.815 397.166C676.784 397.16 676.34 397.054 675.826 396.608C675.29 396.145 675.085 395.667 675.043 395.538C675.025 395.482 675.14 395.814 675.112 396.765C675.084 397.7 674.924 399.027 674.522 400.835L690.141 404.306ZM606.832 402.57C570.806 402.57 544.332 424.658 544.332 450.57H560.332C560.332 436.718 576.031 418.57 606.832 418.57V402.57Z" fill="#FFDD64" mask="url(#path-1-inside-1_205_150)"/>

        
<path d="M521.605 532C522.958 534.252 536.752 564.692 555.393 592.602C558.052 596.582 556.82 602.03 552.629 604.342L517 624" stroke="#494949" stroke-width="8"/>

        
<path d="M565.5 650L643 670.5L561.14 695H463L391 658.771L463 650L512.5 658.771L565.5 650Z" fill="#D9D7E9"/>
<path d="M391 658.771L470.86 678.261H569.56L643 670.5M391 658.771L463 650L512.5 658.771L565.5 650L643 670.5M391 658.771L463 695H561.14L643 670.5" stroke="#BFB9CC"/>

        
<path d="M286.029 403.398L311.787 353.184L344.559 314.164L389.769 284.592L446.965 265.49L487.288 260.664L520.754 259.151L571.064 264.885L620.215 278.179L666.002 305.64L705.202 342.407" stroke="#D8D8D8" stroke-width="48"/>
<path d="M425.485 252.11C426.106 253.087 426.698 255.113 425.581 259.107C424.465 263.096 421.855 268.143 417.534 273.927C408.928 285.447 394.583 298.501 376.432 310.031C358.281 321.56 340.368 328.997 326.282 331.891C319.21 333.344 313.532 333.561 309.447 332.876C305.358 332.19 303.775 330.793 303.154 329.816C302.534 328.839 301.942 326.812 303.059 322.819C304.175 318.83 306.785 313.783 311.106 307.999C319.712 296.479 334.057 283.425 352.208 271.895C370.359 260.366 388.272 252.929 402.358 250.035C409.43 248.582 415.107 248.364 419.193 249.05C423.282 249.736 424.865 251.133 425.485 252.11Z" fill="#C4C4C4" stroke="#6D6D6D" stroke-width="16"/>
<path d="M419.378 251.191C425.746 261.217 411.22 281.931 377.117 299.467C349.601 323.453 311.722 333.646 305.354 323.621C298.986 313.595 313.46 294.697 345.073 271.651C367.722 255.14 413.01 241.166 419.378 251.191Z" fill="#FDFDFD" fill-opacity="0.73"/>
<path d="M663.137 295.202C662.74 296.29 661.492 297.993 657.645 299.538C653.801 301.082 648.208 302.084 640.989 302.179C626.611 302.367 607.521 298.936 587.323 291.558C567.125 284.18 550.318 274.498 539.447 265.087C533.988 260.362 530.358 255.99 528.414 252.332C526.469 248.671 526.613 246.565 527.01 245.477C527.407 244.39 528.655 242.687 532.502 241.142C536.346 239.598 541.939 238.595 549.158 238.501C563.536 238.313 582.626 241.744 602.824 249.122C623.022 256.5 639.829 266.181 650.701 275.593C656.159 280.318 659.789 284.689 661.733 288.347C663.678 292.009 663.534 294.115 663.137 295.202Z" fill="#C4C4C4" stroke="#6D6D6D" stroke-width="16"/>
<path d="M660.147 289.798C656.072 300.954 630.795 302.043 596.12 285.669C560.338 278.447 529.189 254.606 533.264 243.45C537.339 232.294 561.143 232.268 598.674 243.313C625.561 251.226 664.222 278.642 660.147 289.798Z" fill="#FDFDFD" fill-opacity="0.73"/>

    </svg>
