
    <svg width="1000" height="1000" viewBox="0 0 1000 1000" fill="none" xmlns="http://www.w3.org/2000/svg">
        
<circle cx="516.5" cy="499.5" r="264.5" fill="#FFF3E9"/>

        
<path d="M667.5 188.5L517 167.5L778 480L743.5 248.5L667.5 188.5Z" fill="#4D4B4B" stroke="black"/>
<path d="M364 189.5L517.5 167.5L253.5 481L291.5 241L364 189.5Z" fill="#4D4B4B" stroke="black"/>
<path d="M485.421 301.689L519.268 242.604L545.032 261.631C561.366 274.984 594.741 301.689 597.57 301.689C601.106 301.689 620.808 353.264 623.334 353.264C625.355 353.264 633.943 387.313 637.984 404.338L700.626 446.9L744.071 463.424L786 491.464L777.412 455.913L720.327 340.245L654.15 231.087L580.899 199.541L519.268 171L485.421 185.02L418.233 242.604L315.683 353.264L249 481.45V516L256.072 508.99L280.826 487.459L308.611 446.9L353.571 419.861L377.819 376.298L411.161 345.253L449.554 328.729L485.421 301.689Z" fill="#EB3434" stroke="black"/>
<path d="M739.064 87C777.423 158.739 725.03 330.341 719.417 323.819L689.946 291.211L658.603 263.901L629.132 246.782L602 236.999L636.149 217.842L676.848 186.048L712.868 142.434L739.064 87Z" fill="#8F2CF2" stroke="black"/>
<path d="M738.005 103C770.141 163.084 722.07 313.317 717.367 307.855L692.677 280.544L666.42 257.671L641.731 243.332L619 235.139L647.609 219.094L681.704 192.466L711.881 155.937L738.005 103Z" fill="#D0AFF1" stroke="black"/>
<path d="M293.936 87C255.577 158.739 307.97 330.341 313.583 323.819L343.054 291.211L374.397 263.901L403.868 246.782L431 236.999L396.851 217.842L356.152 186.048L320.132 142.434L293.936 87Z" fill="#8F2CF2" stroke="black"/>
<path d="M294.995 103C262.859 163.084 310.93 313.317 315.633 307.855L340.323 280.544L366.58 257.671L391.269 243.332L414 235.139L385.391 219.094L351.296 192.466L321.119 155.937L294.995 103Z" fill="#D0AFF1" stroke="black"/>
<path d="M517 170L642.33 211.434L664.237 253.867L699.39 281.823L735.562 302.79L767.659 381.166L782.943 433.084L786 486L652.009 310.777L581.703 245.88L544.002 211.434L527.189 192.964L517 170Z" fill="#C4C4C4" stroke="black"/>
<path d="M517 170L392.136 211.434L370.311 253.867L335.288 281.823L299.25 302.79L267.273 381.166L252.045 433.084L249 486L382.492 310.777L452.538 245.88L490.098 211.434L506.848 192.964L517 170Z" fill="#C4C4C4" stroke="black"/>

        
<path d="M270.5 406L300 417.5L379.5 428.5L515 431L663 428.5L737.5 423.5L762.5 409.5L772.5 436.5L775.363 462L515 455L258 441.5L262.5 423L270.5 406Z" fill="#871E1E"/>
<circle cx="417.5" cy="454" r="65" fill="#2A9C4A" stroke="#871E1E" stroke-width="18"/>
<circle cx="417" cy="453.5" r="63.5" fill="#DBFEC0" fill-opacity="0.46"/>
<circle cx="619.5" cy="454" r="65" fill="#2A9C4A" stroke="#871E1E" stroke-width="18"/>
<circle cx="619" cy="453.5" r="63.5" fill="#DBFEC0" fill-opacity="0.46"/>

        
<path d="M521.605 532C522.958 534.252 536.752 564.692 555.393 592.602C558.052 596.582 556.82 602.03 552.629 604.342L517 624" stroke="#494949" stroke-width="8"/>

        
<path d="M408 696.5V601L472.273 633L549.273 626L625 592L620 703L600.5 725.5L557 706.5L507 696.5H477L451.5 703L426.5 717L408 696.5Z" fill="#808080" stroke="black"/>
<path d="M428.5 667C422.333 646 409.6 603.4 408 601L424.5 610L438 617.5L455.5 626L471.5 631.5H503.5L529.5 626L560.5 617.5L579 610L598 601L622 592L598 672.5V601L586 642L579 610L575 642L560.5 617.5L553 652L529.5 626L521 652L503.5 631.5L488.5 652L471.5 631.5L466 645.5L455.5 626L444.5 631.5L438 617.5L432 626L424.5 610L428.5 667Z" fill="white"/>
<path d="M424.5 610L428.5 667C422.333 646 409.6 603.4 408 601L424.5 610ZM424.5 610L432 626L438 617.5M424.5 610L438 617.5M438 617.5L444.5 631.5L455.5 626M438 617.5L455.5 626M455.5 626L466 645.5L471.5 631.5M455.5 626L471.5 631.5M471.5 631.5L488.5 652L503.5 631.5M471.5 631.5H503.5M503.5 631.5L521 652L529.5 626M503.5 631.5L529.5 626M529.5 626L553 652L560.5 617.5M529.5 626L560.5 617.5M560.5 617.5L575 642L579 610M560.5 617.5L579 610M579 610L586 642L598 601M579 610L598 601M598 601V672.5L622 592L598 601Z" stroke="#616161"/>
<path d="M431 659.5C424.833 680.5 410.6 692.6 409 695L427 716.5L440.5 709L458 700.5L474 695H506L532 700.5L563 709L581.5 716.5L600.5 725.5L620 700.5L600.5 654V725.5L588.5 684.5L581.5 716.5L577.5 684.5L563 709L555.5 674.5L532 700.5L523.5 674.5L506 695L491 674.5L474 695L468.5 681L458 700.5L447 695L440.5 709L434.5 700.5L427 716.5L431 659.5Z" fill="white"/>
<path d="M427 716.5L431 659.5C424.833 680.5 410.6 692.6 409 695L427 716.5ZM427 716.5L434.5 700.5L440.5 709M427 716.5L440.5 709M440.5 709L447 695L458 700.5M440.5 709L458 700.5M458 700.5L468.5 681L474 695M458 700.5L474 695M474 695L491 674.5L506 695M474 695H506M506 695L523.5 674.5L532 700.5M506 695L532 700.5M532 700.5L555.5 674.5L563 709M532 700.5L563 709M563 709L577.5 684.5L581.5 716.5M563 709L581.5 716.5M581.5 716.5L588.5 684.5L600.5 725.5M581.5 716.5L600.5 725.5M600.5 725.5V654L620 700.5L600.5 725.5Z" stroke="#616161"/>

        
<path d="M286.029 403.398L311.787 353.184L344.559 314.164L389.769 284.592L446.965 265.49L487.288 260.664L520.754 259.151L571.064 264.885L620.215 278.179L666.002 305.64L705.202 342.407" stroke="#D8D8D8" stroke-width="48"/>
<path d="M425.485 252.11C426.106 253.087 426.698 255.113 425.581 259.107C424.465 263.096 421.855 268.143 417.534 273.927C408.928 285.447 394.583 298.501 376.432 310.031C358.281 321.56 340.368 328.997 326.282 331.891C319.21 333.344 313.532 333.561 309.447 332.876C305.358 332.19 303.775 330.793 303.154 329.816C302.534 328.839 301.942 326.812 303.059 322.819C304.175 318.83 306.785 313.783 311.106 307.999C319.712 296.479 334.057 283.425 352.208 271.895C370.359 260.366 388.272 252.929 402.358 250.035C409.43 248.582 415.107 248.364 419.193 249.05C423.282 249.736 424.865 251.133 425.485 252.11Z" fill="#C4C4C4" stroke="#6D6D6D" stroke-width="16"/>
<path d="M419.378 251.191C425.746 261.217 411.22 281.931 377.117 299.467C349.601 323.453 311.722 333.646 305.354 323.621C298.986 313.595 313.46 294.697 345.073 271.651C367.722 255.14 413.01 241.166 419.378 251.191Z" fill="#FDFDFD" fill-opacity="0.73"/>
<path d="M663.137 295.202C662.74 296.29 661.492 297.993 657.645 299.538C653.801 301.082 648.208 302.084 640.989 302.179C626.611 302.367 607.521 298.936 587.323 291.558C567.125 284.18 550.318 274.498 539.447 265.087C533.988 260.362 530.358 255.99 528.414 252.332C526.469 248.671 526.613 246.565 527.01 245.477C527.407 244.39 528.655 242.687 532.502 241.142C536.346 239.598 541.939 238.595 549.158 238.501C563.536 238.313 582.626 241.744 602.824 249.122C623.022 256.5 639.829 266.181 650.701 275.593C656.159 280.318 659.789 284.689 661.733 288.347C663.678 292.009 663.534 294.115 663.137 295.202Z" fill="#C4C4C4" stroke="#6D6D6D" stroke-width="16"/>
<path d="M660.147 289.798C656.072 300.954 630.795 302.043 596.12 285.669C560.338 278.447 529.189 254.606 533.264 243.45C537.339 232.294 561.143 232.268 598.674 243.313C625.561 251.226 664.222 278.642 660.147 289.798Z" fill="#FDFDFD" fill-opacity="0.73"/>

    </svg>
