<svg width="1000" height="1000" viewBox="0 0 1000 1000" fill="none" xmlns="http://www.w3.org/2000/svg">
<path d="M504 464.043C504 478.875 484.415 498.342 452.417 491.668C437.966 488.655 425.327 477.938 416.188 465.341C406.99 452.664 402 439.008 402 431.089C402 429.344 402.367 428.544 402.62 428.19C402.838 427.886 403.236 427.536 404.211 427.284C406.502 426.692 410.332 427.029 415.998 428.183C418.525 428.698 421.334 429.361 424.345 430.071C433.955 432.337 445.625 435.089 456.8 435.089C470.287 435.089 482.31 438.615 490.839 444.104C499.41 449.621 504 456.763 504 464.043Z" fill="#71D1EF" stroke="#707070" stroke-width="8"/>
<path d="M544 464.043C544 478.875 563.585 498.342 595.583 491.668C610.034 488.655 622.673 477.938 631.812 465.341C641.01 452.664 646 439.008 646 431.089C646 429.344 645.633 428.544 645.38 428.19C645.162 427.886 644.764 427.536 643.789 427.284C641.498 426.692 637.668 427.029 632.002 428.183C629.475 428.698 626.666 429.361 623.655 430.071C614.045 432.337 602.375 435.089 591.2 435.089C577.713 435.089 565.69 438.615 557.161 444.104C548.59 449.621 544 456.763 544 464.043Z" fill="#F0CA41" stroke="#707070" stroke-width="8"/>
</svg>
