<svg width="1000" height="1000" viewBox="0 0 1000 1000" fill="none" xmlns="http://www.w3.org/2000/svg">
<path d="M503 454C498.478 425.385 475.465 410.154 441.5 410.154C407.534 410.154 384.522 426.308 380 454C380 427.49 407.534 406 441.5 406C475.465 406 503 427.49 503 454Z" fill="#C4C4C4"/>
<path d="M668 454C663.478 425.385 640.465 410.154 606.5 410.154C572.534 410.154 549.522 426.308 545 454C545 427.49 572.534 406 606.5 406C640.465 406 668 427.49 668 454Z" fill="#C4C4C4"/>
<path d="M503 454C498.478 425.385 475.465 410.154 441.5 410.154C407.534 410.154 384.522 426.308 380 454C380 427.49 407.534 406 441.5 406C475.465 406 503 427.49 503 454Z" fill="#C4C4C4"/>
<path d="M668 454C663.478 425.385 640.465 410.154 606.5 410.154C572.534 410.154 549.522 426.308 545 454C545 427.49 572.534 406 606.5 406C640.465 406 668 427.49 668 454Z" fill="#C4C4C4"/>
</svg>
