<svg width="1000" height="1000" viewBox="0 0 1000 1000" fill="none" xmlns="http://www.w3.org/2000/svg">
<mask id="path-1-inside-1_205_150" fill="white">
<path d="M494.785 450.57C494.785 470.453 481.243 488.913 440.284 477.57C407.785 468.57 372.785 438.57 364.785 402.57C357.155 368.237 406.871 410.57 440.284 410.57C473.698 410.57 494.785 430.688 494.785 450.57Z"/>
<path d="M552.332 450.57C552.332 470.453 565.873 488.913 606.832 477.57C639.332 468.57 674.331 438.57 682.332 402.57C689.962 368.237 640.245 410.57 606.832 410.57C573.419 410.57 552.332 430.688 552.332 450.57Z"/>
</mask>
<path d="M494.785 450.57C494.785 470.453 481.243 488.913 440.284 477.57C407.785 468.57 372.785 438.57 364.785 402.57C357.155 368.237 406.871 410.57 440.284 410.57C473.698 410.57 494.785 430.688 494.785 450.57Z" fill="#F8E646"/>
<path d="M552.332 450.57C552.332 470.453 565.873 488.913 606.832 477.57C639.332 468.57 674.331 438.57 682.332 402.57C689.962 368.237 640.245 410.57 606.832 410.57C573.419 410.57 552.332 430.688 552.332 450.57Z" fill="#F8E646"/>
<path d="M440.284 477.57L442.419 469.861L440.284 477.57ZM364.785 402.57L372.594 400.835L364.785 402.57ZM606.832 477.57L604.697 469.86L606.832 477.57ZM682.332 402.57L674.522 400.835L682.332 402.57ZM486.785 450.57C486.785 458.84 484.014 465.41 478.45 469.128C472.717 472.958 461.854 475.242 442.419 469.861L438.149 485.28C459.673 491.241 476.061 489.966 487.338 482.432C498.785 474.784 502.785 462.183 502.785 450.57H486.785ZM442.419 469.861C427.557 465.745 411.816 456.709 398.858 444.396C385.898 432.081 376.169 416.921 372.594 400.835L356.975 404.306C361.401 424.22 373.171 442.06 387.836 455.995C402.503 469.932 420.511 480.396 438.149 485.28L442.419 469.861ZM372.594 400.835C372.192 399.027 372.032 397.7 372.004 396.765C371.976 395.814 372.091 395.482 372.073 395.538C372.031 395.667 371.827 396.145 371.291 396.608C370.776 397.054 370.333 397.16 370.301 397.167C370.296 397.168 370.381 397.15 370.581 397.143C370.781 397.136 371.063 397.142 371.441 397.177C372.213 397.249 373.227 397.43 374.518 397.762C377.132 398.433 380.338 399.582 384.16 401.118C391.304 403.99 401.312 408.567 410.533 411.991C419.983 415.502 430.455 418.57 440.284 418.57V402.57C433.407 402.57 425.134 400.347 416.104 396.993C406.843 393.553 398.634 389.692 390.127 386.272C386.122 384.663 382.144 383.202 378.502 382.265C375.045 381.377 370.921 380.691 367.026 381.505C364.94 381.942 362.746 382.844 360.82 384.51C358.874 386.195 357.599 388.318 356.862 390.575C355.494 394.768 355.924 399.578 356.975 404.306L372.594 400.835ZM440.284 418.57C471.085 418.57 486.785 436.718 486.785 450.57H502.785C502.785 424.658 476.31 402.57 440.284 402.57V418.57ZM544.332 450.57C544.332 462.183 548.331 474.784 559.778 482.432C571.055 489.966 587.443 491.241 608.967 485.28L604.697 469.86C585.262 475.242 574.4 472.958 568.667 469.128C563.103 465.41 560.332 458.84 560.332 450.57H544.332ZM608.967 485.28C626.605 480.396 644.613 469.931 659.28 455.995C673.945 442.059 685.716 424.22 690.141 404.306L674.522 400.835C670.947 416.921 661.218 432.081 648.258 444.396C635.3 456.709 619.559 465.745 604.697 469.86L608.967 485.28ZM690.141 404.306C691.192 399.578 691.622 394.768 690.254 390.575C689.517 388.318 688.242 386.195 686.296 384.51C684.371 382.844 682.176 381.941 680.09 381.505C676.195 380.691 672.072 381.377 668.615 382.265C664.972 383.202 660.994 384.663 656.989 386.272C648.482 389.692 640.273 393.553 631.012 396.993C621.982 400.347 613.709 402.57 606.832 402.57V418.57C616.661 418.57 627.133 415.502 636.583 411.991C645.804 408.567 655.812 403.99 662.957 401.118C666.778 399.582 669.984 398.433 672.598 397.762C673.89 397.43 674.904 397.249 675.675 397.177C676.053 397.142 676.336 397.136 676.535 397.143C676.735 397.15 676.82 397.168 676.815 397.166C676.784 397.16 676.34 397.054 675.826 396.608C675.29 396.145 675.085 395.667 675.043 395.538C675.025 395.482 675.14 395.814 675.112 396.765C675.084 397.7 674.924 399.027 674.522 400.835L690.141 404.306ZM606.832 402.57C570.806 402.57 544.332 424.658 544.332 450.57H560.332C560.332 436.718 576.031 418.57 606.832 418.57V402.57Z" fill="#FFDD64" mask="url(#path-1-inside-1_205_150)"/>
</svg>
