<svg width="1000" height="1000" viewBox="0 0 1000 1000" fill="none" xmlns="http://www.w3.org/2000/svg">
<path d="M498 477.594C498 515 458.5 489.5 421 485C383.5 480.5 370 492.702 370 464.128C370 435.554 383.187 394.672 432.253 398.216C486.866 402.16 498 449.02 498 477.594Z" fill="white"/>
<path d="M497 471C497 495.771 467.535 478.594 441.461 475.614C415.387 472.634 406 480.715 406 461.792C406 442.87 414.883 403.654 449 406C486.973 408.612 497 452.077 497 471Z" fill="#58F5D9"/>
<path d="M479 456.866C479 470.156 472.04 471.039 458 469.44C443.96 467.841 430 462.078 430 451.926C430 441.774 434.783 420.735 453.154 421.994C473.601 423.395 479 446.714 479 456.866Z" fill="#7E7E7E"/>
<path d="M549 477.594C549 515 588.5 489.5 626 485C663.5 480.5 677 492.702 677 464.128C677 435.554 663.813 394.672 614.747 398.216C560.134 402.16 549 449.02 549 477.594Z" fill="white"/>
<path d="M550 471C550 495.771 579.465 478.594 605.539 475.614C631.613 472.634 641 480.715 641 461.792C641 442.87 632.117 403.654 598 406C560.027 408.612 550 452.077 550 471Z" fill="#58F5D9"/>
<path d="M568 456.866C568 470.156 574.96 471.039 589 469.44C603.04 467.841 617 462.078 617 451.926C617 441.774 612.217 420.735 593.846 421.994C573.399 423.395 568 446.714 568 456.866Z" fill="#7E7E7E"/>
</svg>
